<svg width="88" height="16" viewBox="0 0 88 16" fill="none" xmlns="http://www.w3.org/2000/svg">
<path d="M9.66619 10.2119V15.6693H6.06752V10.1705L0 0.248047H3.84974L8.03424 7.1111L12.2187 0.248047H15.7756L9.66619 10.2119Z" fill="#B83375"/>
<path d="M14.7715 9.75704C14.7715 6.20149 17.5751 3.63818 21.383 3.63818C25.1909 3.63818 27.9527 6.16014 27.9527 9.75704C27.9527 13.3126 25.1909 15.8759 21.383 15.8759C17.5751 15.8759 14.7715 13.3539 14.7715 9.75704ZM24.4377 9.75704C24.4377 7.68986 23.1405 6.44955 21.383 6.44955C19.6255 6.44955 18.2865 7.68986 18.2865 9.75704C18.2865 11.8242 19.6255 13.0645 21.383 13.0645C23.0986 13.0645 24.4377 11.8242 24.4377 9.75704Z" fill="#B83375"/>
<path d="M42.3878 3.84497V15.7106H39.0821V14.3049C38.1615 15.3385 36.8224 15.876 35.3579 15.876C32.345 15.876 30.2109 14.1809 30.2109 10.5427V3.84497H33.6841V10.0465C33.6841 12.031 34.5628 12.8992 36.1111 12.8992C37.7012 12.8992 38.8728 11.8656 38.8728 9.71578V3.84497H42.3878Z" fill="#B83375"/>
<path d="M44.8994 7.97933C44.8994 3.30749 48.4981 0 53.394 0C56.1139 0 58.3735 0.950895 59.8381 2.72867L57.4948 4.8372C56.4486 3.63824 55.1096 3.01808 53.5613 3.01808C50.6322 3.01808 48.5399 5.04392 48.5399 7.97933C48.5399 10.8734 50.6322 12.9406 53.5613 12.9406C55.1096 12.9406 56.4486 12.3204 57.4948 11.1214L59.8381 13.23C58.3735 15.0078 56.1139 16 53.394 16C48.4981 15.9587 44.8994 12.6512 44.8994 7.97933Z" fill="#B83375"/>
<path d="M72.5584 8.93017V15.7105H69.2945V14.2222C68.6669 15.2971 67.4115 15.8759 65.6122 15.8759C62.8086 15.8759 61.1348 14.3462 61.1348 12.279C61.1348 10.1705 62.6412 8.72345 66.2817 8.72345H69.0435C69.0435 7.23508 68.1647 6.36687 66.2817 6.36687C65.0263 6.36687 63.6873 6.7803 62.8086 7.48314L61.5532 5.08521C62.8504 4.17565 64.8171 3.63818 66.742 3.63818C70.4244 3.63818 72.5584 5.33327 72.5584 8.93017ZM69.0435 11.9483V10.7493H66.6583C65.0263 10.7493 64.5242 11.3281 64.5242 12.155C64.5242 13.0232 65.2774 13.602 66.4909 13.602C67.6626 13.5607 68.6669 13.0232 69.0435 11.9483Z" fill="#B83375"/>
<path d="M87.9998 8.88884V15.6692H84.5267V9.4263C84.5267 7.52449 83.648 6.61493 82.0997 6.61493C80.4259 6.61493 79.2124 7.64852 79.2124 9.79839V15.6692H75.7393V3.80356H79.0869V5.20924C80.0074 4.17565 81.4302 3.63818 83.0621 3.63818C85.8239 3.63818 87.9998 5.29194 87.9998 8.88884Z" fill="#B83375"/>
</svg>
